<svg width="85" height="97" viewBox="0 0 85 97" fill="none" xmlns="http://www.w3.org/2000/svg">
<path d="M68.6232 23.0865C68.3664 22.703 67.9428 22.4834 67.527 22.2902C66.0571 21.5896 64.533 20.948 62.9122 20.7078C61.2999 20.4723 59.5732 20.6507 58.1929 21.5162C59.7015 18.7049 61.5046 16.0651 63.5621 13.6302C63.4058 13.4897 63.2409 13.3446 63.0846 13.2041C61.1821 14.5604 59.7696 16.4826 58.602 18.5049C57.4343 20.5272 56.4766 22.6527 55.3004 24.6703C56.3126 20.592 55.7606 16.1494 53.7808 12.4355C53.3095 12.5886 52.8427 12.7332 52.3714 12.8863C53.9274 14.243 54.3788 16.3051 54.6476 18.3564C54.9079 20.4031 55.0376 22.4451 54.5544 24.4524L54.0786 26.8736C54.5473 25.0355 55.9313 24.0614 57.6681 23.2129C59.6573 22.2471 61.0275 22.0517 63.0909 22.0898C64.5273 22.1188 67.5506 23.2445 68.4934 24.3226C68.8815 24.0577 68.8847 23.4614 68.6232 23.0865Z" fill="#E08CB8"/>
<path d="M54.0837 26.865C54.0489 26.99 54.0227 27.1197 54.0049 27.254L54.0837 26.865Z" fill="#E08CB8"/>
<path d="M56.2363 22.4217L3.66569 64.5904C3.66569 64.5904 5.14754 70.3589 10.4949 75.3194C14.7364 79.2569 22.8527 83.7537 22.8527 83.7537C22.8527 83.7537 31.0341 88.1309 36.6431 89.5569C43.7114 91.3566 49.3609 89.471 49.3609 89.471L56.2363 22.4217Z" fill="#46A5AA"/>
<path d="M52.3404 37.8221C52.9727 38.4321 53.6835 39.0406 54.4484 39.4682L54.8809 35.2736C53.5094 34.25 52.0835 33.2853 50.8392 32.1094C49.8228 31.1462 48.9421 30.0354 48.226 28.8259L46.0039 30.6063C47.9055 33.1812 50.0345 35.603 52.3404 37.8221Z" fill="#E08CB8"/>
<path d="M51.1259 67.2744C51.2681 67.3186 51.4235 67.3589 51.5836 67.3907L52.023 63.1224C48.684 60.2965 44.8911 57.9987 41.6342 55.0625C37.5414 51.3609 34.3765 46.6474 32.4782 41.4605L27.8997 45.1254C31.4919 49.1967 34.4701 53.7643 38.0266 57.8605C41.5955 61.9745 45.9144 65.6883 51.1259 67.2744Z" fill="#E08CB8"/>
<path d="M50.7186 75.7796C50.5398 75.6601 50.3563 75.5491 50.1775 75.4296C44.2054 71.6573 38.1998 67.8447 32.9622 63.1101C28.6835 59.2409 24.9028 54.7015 22.4117 49.5242L17.0982 53.7856C24.0419 66.1165 35.2648 76.0039 48.3928 81.3134C48.9299 81.5283 49.5112 81.723 50.104 81.8354L50.7186 75.7796Z" fill="#E08CB8"/>
<path d="M42.7378 34.9967C42.512 34.5969 42.3002 34.1714 42.0931 33.7375L38.536 36.5852C41.5206 41.2227 44.8746 45.6295 48.5484 49.7341C49.8568 51.1996 51.2483 52.655 53.0088 53.5139L53.5351 48.3736C49.2192 44.5728 45.5433 40.024 42.7378 34.9967Z" fill="#E08CB8"/>
<path d="M17.3334 76.3191C19.263 78.9646 21.2004 81.6365 23.3947 84.0606C25.3676 85.0794 31.8884 88.353 36.5905 89.551C37.7476 89.8488 38.8649 90.0363 39.9192 90.1563C39.7043 89.6959 39.3791 89.2752 39.0485 88.8848C36.2456 85.5423 32.6458 82.951 29.5915 79.826C23.7987 73.892 20.1021 66.1644 14.3551 60.1667C13.6068 59.3827 12.8143 58.619 12.1336 57.7721L6.94121 61.9333C7.55756 62.8781 8.22282 63.7941 8.87563 64.6922C11.6946 68.5751 14.5183 72.4494 17.3334 76.3191Z" fill="#E08CB8"/>
<path opacity="0.34" d="M18.3251 59.8585C17.1314 60.8698 15.8874 61.9534 15.3445 63.4187C14.8016 64.8841 15.2303 66.8453 16.6768 67.4667C17.6771 67.8896 18.8692 67.5529 19.7323 66.9043C20.5954 66.2557 21.2197 65.333 21.8301 64.436C26.278 57.9977 31.6659 52.2151 37.764 47.3066C38.8079 46.4685 42.1457 42.7815 38.7076 42.9473C36.7049 43.0419 33.6787 46.7878 32.1932 48.05C27.5747 51.9921 22.9476 55.9296 18.3251 59.8585Z" fill="white"/>
<path opacity="0.34" d="M41.2561 40.3032C41.1313 40.5121 41.0057 40.7428 41.0277 40.9873C41.0593 41.4586 41.6027 41.7434 42.0649 41.7293C43.0025 41.6971 43.7179 40.9126 44.3222 40.1896C45.1267 39.221 49.584 34.9032 45.9777 35.3983C43.8338 35.6708 42.202 38.6475 41.2561 40.3032Z" fill="white"/>
<path d="M66.5575 30.7883C67.135 28.3229 66.2416 25.566 64.317 23.9089C62.3924 22.2518 59.5384 21.7722 57.1802 22.7032C58.3358 21.0288 59.8614 19.6112 61.6129 18.5934C62.5553 18.0434 63.6424 17.5942 64.7256 17.7631C64.6621 17.3299 64.5855 16.9005 64.5221 16.4673C60.4561 16.5238 56.5625 19.2769 55.1546 23.0843C55.3326 21.2099 54.2515 19.3476 52.7027 18.2828C51.1501 17.2048 49.1982 16.8398 47.3137 16.9212C46.9602 16.9392 46.5889 16.9696 46.3072 17.1817C45.7615 17.5934 45.8292 18.4055 45.9411 19.0756C47.7734 18.1129 50.1624 18.3062 51.8271 19.5448C53.4918 20.7835 54.3512 23.0124 53.9628 25.0492L54.623 26.3612C55.6574 24.665 57.7912 23.8001 59.7554 24.0611C61.7282 24.3268 63.4737 25.6205 64.5174 27.3074C64.8638 27.8725 65.1511 28.5052 65.1589 29.1629C65.162 29.8291 64.8287 30.5226 64.2223 30.8015C65.0203 30.9038 65.7956 30.905 66.5575 30.7883Z" fill="#46A5AA"/>
</svg>
