<svg width="120" height="126" viewBox="0 0 120 126" fill="none" xmlns="http://www.w3.org/2000/svg">
<path d="M79.8009 103.822C75.9051 115.805 56.4893 120.218 36.4231 113.694C16.2928 107.044 3.18444 92.0565 7.0493 80.169C7.26573 79.5033 7.57726 78.8685 7.85787 78.3289C13.0612 67.8229 31.4712 64.2394 50.4912 70.4232C69.5112 76.607 82.294 90.3318 80.2932 101.984C80.1386 102.46 80.0173 103.156 79.8009 103.822Z" fill="#F7AD1A"/>
<path d="M80.2292 101.858C78.7928 104.336 75.9895 105.843 73.255 108.108C70.5206 110.374 67.2108 111.821 63.4068 110.585C61.5048 109.966 59.1652 110.047 57.1466 110.757C53.9296 111.92 50.2254 111.346 47.3035 109.66C44.7311 108.193 41.531 107.363 38.3688 107.386C33.2451 107.298 29.4055 105.524 26.1866 102.164C23.2863 99.1179 19.9175 96.8659 16.5866 95.4676C11.67 93.4485 9.49722 90.4287 8.8938 85.8161C8.55649 82.9725 7.52725 80.64 7.76288 78.2981C12.9662 67.7921 31.3762 64.2087 50.3962 70.3924C69.4471 76.4811 82.23 90.2059 80.2292 101.858Z" fill="#EE8034"/>
<path d="M81.78 97.7357C80.6979 101.064 77.4523 102.638 74.2779 105.286C71.5435 107.552 68.2337 108.999 64.4297 107.763C62.5277 107.144 60.1881 107.225 58.1695 107.935C54.8574 109.067 51.2483 108.524 48.3264 106.838C45.754 105.371 42.5539 104.541 39.3917 104.564C34.268 104.476 30.4284 102.702 27.2095 99.3419C24.3092 96.2959 20.9404 94.044 17.5786 92.7407C12.5669 90.6907 10.425 87.5758 9.82161 82.9632C9.41777 79.6773 8.1318 76.8407 9.02845 74.0828C12.3677 63.812 31.3197 60.8254 51.3859 67.3493C71.452 73.8732 85.1192 87.4649 81.78 97.7357Z" fill="#F7ADBB"/>
<path d="M84.0749 91.647C80.1791 103.63 60.7942 107.948 40.7281 101.424C20.662 94.8998 7.55359 79.9125 11.4184 68.025C11.7895 66.8838 12.3507 65.8044 13.007 64.756C19.0091 55.3509 36.6011 52.3428 54.6701 58.2173C72.8343 64.1228 85.2938 76.9013 84.6816 88.1639C84.6268 89.3027 84.4459 90.5058 84.0749 91.647Z" fill="#EE8034"/>
<path d="M84.5199 87.6906C78.4228 97.0647 60.8307 100.073 42.6666 94.1674C24.5976 88.2928 12.138 75.5143 12.7193 64.3469C18.8474 54.8776 36.4395 51.8695 54.5085 57.744C72.6726 63.6495 85.1322 76.428 84.5199 87.6906Z" fill="#F7AD1A"/>
<path d="M54.9142 65.5522C54.9779 69.8842 47.0031 73.3902 37.2003 73.4629C27.3975 73.5355 19.3402 70.1799 19.2456 65.943C19.1819 61.6111 27.1567 58.105 36.9595 58.0323C46.7932 57.8646 54.8195 61.3153 54.9142 65.5522Z" fill="#FFC928"/>
<path d="M61.3988 78.5962C61.0184 78.4725 60.802 79.1382 61.1824 79.2619C61.6888 79.3214 61.8743 78.7508 61.3988 78.5962Z" fill="#EE8034"/>
<path d="M67.664 74.8498C66.4277 74.4479 65.7784 76.445 67.0147 76.8469C68.251 77.2488 68.9003 75.2517 67.664 74.8498Z" fill="#EE8034"/>
<path d="M49.6487 80.4543C48.4124 80.0523 47.794 81.9543 49.0303 82.3563C50.2666 82.7582 50.9801 80.8872 49.6487 80.4543Z" fill="#EE8034"/>
<path d="M32.68 77.987L32.5849 77.956C32.2045 77.8324 31.988 78.4981 32.3684 78.6217L32.4635 78.6527C32.8439 78.7763 33.0604 78.1106 32.68 77.987Z" fill="#EE8034"/>
<path d="M49.7277 74.0657C49.6326 74.0348 49.7277 74.0657 49.7277 74.0657C49.44 73.6567 48.8099 73.9776 49.0025 74.3557C49.1617 74.5126 49.2259 74.6386 49.5112 74.7314C49.9867 74.886 50.2032 74.2203 49.7277 74.0657Z" fill="#EE8034"/>
<path d="M58.5617 62.7422C58.1813 62.6185 57.9648 63.2842 58.3452 63.4079C58.7256 63.5315 58.9421 62.8658 58.5617 62.7422Z" fill="#EE8034"/>
<path d="M36.7308 82.6689L36.4455 82.5761C35.2092 82.1742 34.5909 84.0762 35.8272 84.4781L36.1125 84.5709C37.4439 85.0037 38.0622 83.1017 36.7308 82.6689Z" fill="#EE8034"/>
<path d="M18.6464 66.1687C18.2636 65.7288 17.6312 65.7335 17.1913 66.1162C16.9392 66.2446 16.7514 66.499 16.6586 66.7843C16.4731 67.3549 16.8249 67.8899 17.3004 68.0445C17.7759 68.1991 18.28 67.9423 18.5297 67.4978C19.0338 67.241 18.9649 66.4826 18.6464 66.1687Z" fill="#EE8034"/>
<path d="M59.0556 90.9785C57.8193 90.5765 57.17 92.5736 58.4063 92.9756C59.7687 93.3133 60.387 91.4113 59.0556 90.9785Z" fill="#EE8034"/>
<path d="M96.267 13.7897L43.6964 55.9583C43.6964 55.9583 45.1783 61.7269 50.5256 66.6874C54.7671 70.6249 62.8834 75.1216 62.8834 75.1216C62.8834 75.1216 71.0649 79.4988 76.6739 80.9248C83.7422 82.7246 89.3917 80.8389 89.3917 80.8389L96.267 13.7897Z" fill="#46A5AA"/>
<path d="M92.3712 29.19C93.0035 29.8001 93.7142 30.4086 94.4791 30.8361L94.9117 26.6416C93.5402 25.6179 92.1143 24.6532 90.87 23.4773C89.8535 22.5141 88.9729 21.4033 88.2568 20.1938L86.0347 21.9742C87.9362 24.5491 90.0653 26.9709 92.3712 29.19Z" fill="#E08CB8"/>
<path d="M91.1566 58.6423C91.2988 58.6865 91.4543 58.7269 91.6143 58.7586L92.0538 54.4903C88.7147 51.6644 84.9218 49.3666 81.665 46.4304C77.5722 42.7289 74.4073 38.0153 72.5089 32.8285L67.9304 36.4933C71.5226 40.5646 74.5009 45.1323 78.0574 49.2284C81.6263 53.3424 85.9452 57.0563 91.1566 58.6423Z" fill="#E08CB8"/>
<path d="M90.7494 67.1476C90.5705 67.028 90.3871 66.9171 90.2083 66.7976C84.2361 63.0253 78.2306 59.2126 72.993 54.478C68.7143 50.6088 64.9336 46.0694 62.4425 40.8921L57.129 45.1535C64.0727 57.4844 75.2956 67.3718 88.4236 72.6814C88.9606 72.8963 89.5419 73.091 90.1348 73.2033L90.7494 67.1476Z" fill="#E08CB8"/>
<path d="M82.7685 26.3646C82.5428 25.9648 82.331 25.5394 82.1239 25.1054L78.5668 27.9531C81.5513 32.5906 84.9054 36.9974 88.5792 41.1021C89.8876 42.5676 91.279 44.0229 93.0396 44.8819L93.5658 39.7415C89.2499 35.9407 85.5741 31.392 82.7685 26.3646Z" fill="#E08CB8"/>
<path d="M57.3641 67.687C59.2938 70.3325 61.2312 73.0044 63.4255 75.4285C65.3983 76.4473 71.9191 79.7209 76.6212 80.919C77.7783 81.2167 78.8957 81.4042 79.95 81.5242C79.7351 81.0639 79.4098 80.6431 79.0792 80.2527C76.2764 76.9102 72.6766 74.3189 69.6223 71.1939C63.8295 65.2599 60.1329 57.5323 54.3858 51.5346C53.6376 50.7507 52.8451 49.9869 52.1644 49.14L46.972 53.3013C47.5883 54.246 48.2536 55.162 48.9064 56.0601C51.7254 59.943 54.549 63.8173 57.3641 67.687Z" fill="#E08CB8"/>
<path opacity="0.34" d="M58.3559 51.2264C57.1622 52.2377 55.9181 53.3213 55.3752 54.7867C54.8323 56.252 55.2611 58.2132 56.7075 58.8346C57.7078 59.2575 58.8999 58.9209 59.763 58.2722C60.6262 57.6236 61.2505 56.7009 61.8608 55.8039C66.3087 49.3656 71.6966 43.583 77.7948 38.6745C78.8387 37.8364 82.1765 34.1494 78.7383 34.3152C76.7357 34.4098 73.7095 38.1557 72.224 39.4179C67.6054 43.36 62.9783 47.2975 58.3559 51.2264Z" fill="white"/>
<path opacity="0.34" d="M81.2869 31.6711C81.162 31.88 81.0364 32.1107 81.0585 32.3553C81.0901 32.8265 81.6334 33.1113 82.0956 33.0972C83.0333 33.065 83.7486 32.2806 84.353 31.5575C85.1575 30.589 89.6148 26.2711 86.0084 26.7662C83.8646 27.0387 82.2327 30.0154 81.2869 31.6711Z" fill="white"/>
<path d="M106.588 22.1562C107.166 19.6908 106.272 16.9339 104.348 15.2768C102.423 13.6198 99.5692 13.1401 97.2109 14.0711C98.3665 12.3967 99.8922 10.9791 101.644 9.96137C102.586 9.41131 103.673 8.96215 104.756 9.13105C104.693 8.69781 104.616 8.26845 104.553 7.83521C100.487 7.89173 96.5933 10.6448 95.1853 14.4523C95.3634 12.5778 94.2822 10.7155 92.7335 9.65073C91.1809 8.57276 89.229 8.20772 87.3444 8.28912C86.991 8.3071 86.6197 8.3375 86.3379 8.54957C85.7923 8.96128 85.86 9.77343 85.9719 10.4435C87.8041 9.48082 90.1932 9.67411 91.8579 10.9128C93.5225 12.1514 94.382 14.3803 93.9935 16.4171L94.6538 17.7291C95.6882 16.033 97.822 15.168 99.7862 15.429C101.759 15.6947 103.504 16.9884 104.548 18.6753C104.895 19.2404 105.182 19.8732 105.19 20.5308C105.193 21.197 104.859 21.8905 104.253 22.1695C105.051 22.2717 105.826 22.273 106.588 22.1562Z" fill="#46A5AA"/>
</svg>
